<svg xmlns="http://www.w3.org/2000/svg" xmlns:xlink="http://www.w3.org/1999/xlink" width="2000" zoomAndPan="magnify" viewBox="0 0 1500 1499.999933" height="2000" preserveAspectRatio="xMidYMid meet" version="1.0"><defs><clipPath id="1b6538cfac"><path d="M 0 0 L 1500 0 L 1500 1500 L 0 1500 Z M 0 0 " clip-rule="nonzero"/></clipPath><clipPath id="1c4ddcd15c"><rect x="0" width="1500" y="0" height="1500"/></clipPath><clipPath id="b2b687f3ef"><path d="M 0 43 L 720 43 L 720 731 L 0 731 Z M 0 43 " clip-rule="nonzero"/></clipPath><clipPath id="6507f4ed92"><path d="M 48 0.519531 L 840 0.519531 L 840 731 L 48 731 Z M 48 0.519531 " clip-rule="nonzero"/></clipPath><clipPath id="f85bef22eb"><path d="M 0 391 L 808 391 L 808 997.480469 L 0 997.480469 Z M 0 391 " clip-rule="nonzero"/></clipPath><clipPath id="eabdb19e29"><path d="M 0 257 L 623 257 L 623 997.480469 L 0 997.480469 Z M 0 257 " clip-rule="nonzero"/></clipPath><clipPath id="341d62d44f"><path d="M 302 48 L 996 48 L 996 934 L 302 934 Z M 302 48 " clip-rule="nonzero"/></clipPath><clipPath id="6524b5790b"><path d="M 129 391 L 996 391 L 996 997.480469 L 129 997.480469 Z M 129 391 " clip-rule="nonzero"/></clipPath><clipPath id="fe64eaac4b"><rect x="0" width="996" y="0" height="998"/></clipPath></defs><rect x="-150" width="1800" fill="#ffffff" y="-149.999993" height="1799.99992" fill-opacity="1"/><rect x="-150" width="1800" fill="#ffffff" y="-149.999993" height="1799.99992" fill-opacity="1"/><g transform="matrix(1, 0, 0, 1, 0, 0.000000000000112861)"><g clip-path="url(#1c4ddcd15c)"><g clip-path="url(#1b6538cfac)"><rect x="-330" width="2160" fill="#df060a" height="2159.999904" y="-329.999985" fill-opacity="1"/></g></g></g><g transform="matrix(1, 0, 0, 1, 252, 251)"><g clip-path="url(#fe64eaac4b)"><g clip-path="url(#b2b687f3ef)"><path stroke-linecap="round" transform="matrix(0.94322, 0.0117784, -0.0117784, 0.94322, 0.792697, 354.023757)" fill="none" stroke-linejoin="miter" d="M 31.998746 31.998253 L 400.227227 32.001126 " stroke="#ffffff" stroke-width="64" stroke-opacity="1" stroke-miterlimit="4"/></g><g clip-path="url(#6507f4ed92)"><path stroke-linecap="round" transform="matrix(0.276884, -0.901741, 0.901741, 0.276884, 352.345587, 409.245203)" fill="none" stroke-linejoin="miter" d="M 32.000044 32.000992 L 420.596362 31.998433 " stroke="#ffffff" stroke-width="64" stroke-opacity="1" stroke-miterlimit="4"/></g><g clip-path="url(#f85bef22eb)"><path stroke-linecap="round" transform="matrix(-0.755856, 0.564344, -0.564344, -0.755856, 508.527688, 739.429975)" fill="none" stroke-linejoin="miter" d="M 31.999526 32.000719 L 424.095035 31.999864 " stroke="#ffffff" stroke-width="64" stroke-opacity="1" stroke-miterlimit="4"/></g><g clip-path="url(#eabdb19e29)"><path stroke-linecap="round" transform="matrix(-0.283866, 0.899568, -0.899568, -0.283866, 318.941821, 579.146252)" fill="none" stroke-linejoin="miter" d="M 31.999449 32.001989 L 420.623352 32.001286 " stroke="#ffffff" stroke-width="64" stroke-opacity="1" stroke-miterlimit="4"/></g><path stroke-linecap="round" transform="matrix(-0.943293, 0, 0, -0.943293, 985.723511, 419.48305)" fill="none" stroke-linejoin="miter" d="M 31.999009 32.00084 L 426.395203 32.00084 " stroke="#ffffff" stroke-width="64" stroke-opacity="1" stroke-miterlimit="4"/><g clip-path="url(#341d62d44f)"><path stroke-linecap="round" transform="matrix(-0.790322, 0.51497, -0.51497, -0.790322, 995.952118, 398.634689)" fill="none" stroke-linejoin="miter" d="M 31.999746 31.998838 L 424.476935 31.99961 " stroke="#ffffff" stroke-width="64" stroke-opacity="1" stroke-miterlimit="4"/></g><g clip-path="url(#6524b5790b)"><path stroke-linecap="round" transform="matrix(-0.755763, -0.564468, 0.564468, -0.755763, 772.999049, 996.876129)" fill="none" stroke-linejoin="miter" d="M 31.998775 32.000688 L 424.10327 31.99775 " stroke="#ffffff" stroke-width="64" stroke-opacity="1" stroke-miterlimit="4"/></g></g></g></svg>