<svg xmlns="http://www.w3.org/2000/svg" xmlns:xlink="http://www.w3.org/1999/xlink" width="2000" zoomAndPan="magnify" viewBox="0 0 1500 1499.999933" height="2000" preserveAspectRatio="xMidYMid meet" version="1.0"><defs><clipPath id="d4ace45278"><path d="M 750 0 C 335.785156 0 0 335.785156 0 750 C 0 1164.214844 335.785156 1500 750 1500 C 1164.214844 1500 1500 1164.214844 1500 750 C 1500 335.785156 1164.214844 0 750 0 Z M 750 0 " clip-rule="nonzero"/></clipPath><clipPath id="6c33a656a5"><path d="M 0 0 L 1500 0 L 1500 1500 L 0 1500 Z M 0 0 " clip-rule="nonzero"/></clipPath><clipPath id="8ea04f8370"><path d="M 750 0 C 335.785156 0 0 335.785156 0 750 C 0 1164.214844 335.785156 1500 750 1500 C 1164.214844 1500 1500 1164.214844 1500 750 C 1500 335.785156 1164.214844 0 750 0 Z M 750 0 " clip-rule="nonzero"/></clipPath><clipPath id="531843abde"><rect x="0" width="1500" y="0" height="1500"/></clipPath></defs><g clip-path="url(#d4ace45278)"><g transform="matrix(1, 0, 0, 1, 0, 0.000000000000112861)"><g clip-path="url(#531843abde)"><g clip-path="url(#6c33a656a5)"><g clip-path="url(#8ea04f8370)"><rect x="-330" width="2160" fill="#df060a" height="2159.999904" y="-329.999985" fill-opacity="1"/></g></g></g></g></g><path stroke-linecap="round" transform="matrix(0.749941, 0.00936483, -0.00936483, 0.749941, 250.087073, 579.294482)" fill="none" stroke-linejoin="miter" d="M 55.002007 54.997788 L 537.315749 55.001447 " stroke="#ffffff" stroke-width="110" stroke-opacity="1" stroke-miterlimit="4"/><path stroke-linecap="round" transform="matrix(0.220147, -0.716963, 0.716963, 0.220147, 602.167373, 650.884916)" fill="none" stroke-linejoin="miter" d="M 55.001319 54.997708 L 565.228141 55.002405 " stroke="#ffffff" stroke-width="110" stroke-opacity="1" stroke-miterlimit="4"/><path stroke-linecap="round" transform="matrix(-0.600971, 0.448702, -0.448702, -0.600971, 809.459796, 1013.343997)" fill="none" stroke-linejoin="miter" d="M 55.00091 55.00146 L 570.02299 54.997873 " stroke="#ffffff" stroke-width="110" stroke-opacity="1" stroke-miterlimit="4"/><path stroke-linecap="round" transform="matrix(-0.225698, 0.715234, -0.715234, -0.225698, 607.922741, 842.938899)" fill="none" stroke-linejoin="miter" d="M 54.999673 54.999522 L 565.267887 55.001596 " stroke="#ffffff" stroke-width="110" stroke-opacity="1" stroke-miterlimit="4"/><path stroke-linecap="round" transform="matrix(-0.75, 0, 0, -0.75, 1307.514425, 667.338139)" fill="none" stroke-linejoin="miter" d="M 54.998404 54.997731 L 573.170324 54.997731 " stroke="#ffffff" stroke-width="110" stroke-opacity="1" stroke-miterlimit="4"/><path stroke-linecap="round" transform="matrix(-0.628374, 0.409446, -0.409446, -0.628374, 1323.241095, 643.263861)" fill="none" stroke-linejoin="miter" d="M 55.000847 55.000761 L 570.549476 54.999648 " stroke="#ffffff" stroke-width="110" stroke-opacity="1" stroke-miterlimit="4"/><path stroke-linecap="round" transform="matrix(-0.600897, -0.448801, 0.448801, -0.600897, 1070.749405, 1293.508933)" fill="none" stroke-linejoin="miter" d="M 54.999921 54.997038 L 570.032243 54.999525 " stroke="#ffffff" stroke-width="110" stroke-opacity="1" stroke-miterlimit="4"/></svg>